<svg width="172" height="40" viewBox="0 0 172 40" fill="none" xmlns="http://www.w3.org/2000/svg">
<rect x="0.307129" width="171.386" height="40" fill="#296DC1"/>
<path d="M71.8766 14.8L68.1486 21.904L64.5166 14.8H62.8046L67.3166 23.296L67.0606 23.696C66.5646 24.496 65.9726 24.816 65.3166 24.816C64.9806 24.816 64.6286 24.736 64.2606 24.608L63.8446 25.888C64.3566 26.112 64.8686 26.224 65.3486 26.224C66.5646 26.224 67.6846 25.536 68.4846 24.032L73.4606 14.8H71.8766ZM81.8177 24.656V17.52H75.2417L75.1137 20.384C75.0017 22.528 74.7937 24.592 73.5777 24.656H73.1297V27.968H74.5857V26H81.6737V27.968H83.1137V24.656H81.8177ZM76.5217 20.496L76.6017 18.864H80.2817V24.656H75.5297C76.2977 23.984 76.4577 22.256 76.5217 20.496ZM88.1387 17.44C86.7787 17.44 85.5147 17.824 84.6347 18.528L85.2747 19.68C85.9307 19.12 86.9547 18.768 87.9627 18.768C89.4827 18.768 90.2347 19.52 90.2347 20.816V21.12H87.8027C85.2747 21.12 84.3947 22.24 84.3947 23.6C84.3947 25.072 85.6107 26.096 87.5307 26.096C88.8587 26.096 89.8027 25.648 90.3147 24.88V26H91.7707V20.88C91.7707 18.56 90.4587 17.44 88.1387 17.44ZM87.7867 24.912C86.6187 24.912 85.9147 24.384 85.9147 23.536C85.9147 22.816 86.3467 22.224 87.8667 22.224H90.2347V23.408C89.8507 24.384 88.9387 24.912 87.7867 24.912ZM95.3046 17.52L95.1606 20.656C95.0486 22.656 94.9846 24.736 93.6086 24.736C93.4966 24.736 93.3686 24.72 93.2246 24.688L93.1286 25.984C93.4806 26.08 93.7846 26.128 94.0726 26.128C95.9926 26.128 96.3926 23.744 96.5366 20.752L96.6326 18.864H100.281V26H101.817V17.52H95.3046ZM104.787 26H106.195L111.379 19.824V26H112.915V17.52H111.523L106.323 23.696V17.52H104.787V26ZM122.216 17.52H114.472V18.864H117.576V26H119.112V18.864H122.216V17.52ZM127.707 20.4L125.323 20.384V17.52H123.787V26L127.467 26.016C129.739 26.032 131.019 25.008 131.019 23.168C131.019 21.424 129.867 20.416 127.707 20.4ZM127.339 24.848L125.323 24.832V21.504L127.339 21.536C128.747 21.552 129.451 22.032 129.451 23.152C129.451 24.288 128.731 24.864 127.339 24.848Z" fill="white"/>
<line y1="-0.5" x2="17.0192" y2="-0.5" transform="matrix(0.707903 0.706309 -0.707903 0.706309 40.5337 14.8433)" stroke="white"/>
<line y1="-0.5" x2="17.0192" y2="-0.5" transform="matrix(-0.707903 0.706309 -0.707903 -0.706309 52.5815 14.1357)" stroke="white"/>
</svg>
