<svg width="215" height="37" viewBox="0 0 215 37" fill="none" xmlns="http://www.w3.org/2000/svg">
<g clip-path="url(#clip0_2_399)">
<path fill-rule="evenodd" clip-rule="evenodd" d="M189.547 16.5781L193.802 12.3102L189.563 8.05811L181.073 16.5781H189.547Z" fill="url(#paint0_linear_2_399)"/>
<path fill-rule="evenodd" clip-rule="evenodd" d="M181.533 6.08729V0.0761719H209.014L214.997 6.08729H181.533Z" fill="url(#paint1_linear_2_399)"/>
<path fill-rule="evenodd" clip-rule="evenodd" d="M209.007 33.5357H214.997V6.14714L209.007 0.0727539V33.5357Z" fill="url(#paint2_linear_2_399)"/>
<path fill-rule="evenodd" clip-rule="evenodd" d="M214.997 33.5358L202.838 21.3364L198.599 25.5853L206.525 33.5358H214.997Z" fill="url(#paint3_linear_2_399)"/>
<path fill-rule="evenodd" clip-rule="evenodd" d="M190.677 33.5358L202.835 21.3364L207.074 25.5853L199.148 33.5358H190.677Z" fill="url(#paint4_linear_2_399)"/>
<path fill-rule="evenodd" clip-rule="evenodd" d="M181.533 0L193.802 12.307L189.563 16.559L181.533 8.50098V0Z" fill="url(#paint5_linear_2_399)"/>
<path d="M6.87251 17.8307H13.335V33.5735H16.2713L15.978 31.5329V15.6509H3.87623L4.25786 18.1566L4.10016 21.0451C4.01185 22.8737 3.90777 24.4587 3.78477 25.7907C3.69931 26.8975 3.54233 27.9977 3.31483 29.0841C3.19851 29.7759 2.92789 30.4324 2.52318 31.0045C2.36427 31.209 2.15945 31.3729 1.92541 31.4828C1.69137 31.5928 1.43474 31.6457 1.17643 31.6373C0.973858 31.6381 0.771486 31.6243 0.570869 31.5962C0.3775 31.5725 0.186509 31.5323 0 31.4759L0.264934 33.738C0.49584 33.7954 0.729545 33.8408 0.965116 33.8741C1.20962 33.9088 1.4562 33.9268 1.70315 33.9278C2.47607 33.9534 3.2371 33.7318 3.87623 33.2951C4.48846 32.8362 4.96841 32.2227 5.26713 31.5171C5.65076 30.6357 5.92408 29.7102 6.08086 28.7614C6.28121 27.5862 6.42122 26.4014 6.50034 25.2117C6.58865 23.9114 6.6675 22.5225 6.72742 21.0482L6.87251 17.8307Z" fill="#1D1D1B"/>
<path d="M31.4452 22.7254V33.6561H33.7003L33.4764 32.0901V19.9033H31.5146L24.1185 29.7679L23.5098 30.8341V19.9033H21.1885L21.4818 21.8269V33.6561H23.4436L30.8365 23.7916L31.4452 22.7254Z" fill="#1D1D1B"/>
<path d="M36.5166 37.016H38.5698L38.5919 33.6719H48.2178L48.2557 37.016H50.3089L50.2616 32.0015H48.5711V19.9033H39.4246L39.7179 21.8269L39.6958 23.2063C39.6958 24.3863 39.6643 25.4842 39.5791 26.5061C39.501 27.4779 39.3342 28.4406 39.0808 29.3819C38.8279 30.2935 38.459 31.1686 37.9832 31.9857H36.5639L36.5166 37.016ZM41.7238 23.2221V21.5738H46.5273V31.9857H40.2383C40.6491 31.1557 40.9664 30.2824 41.1845 29.3819C41.4099 28.4368 41.5597 27.4751 41.6323 26.5061C41.6923 25.4842 41.7301 24.3863 41.7238 23.2063V23.2221Z" fill="#1D1D1B"/>
<path d="M54.078 33.6561H61.2943L61.7421 32.109H56.1091V27.3856H60.367L60.818 25.8385H56.1091V21.4504H61.4961V19.9033H53.7847L54.078 21.8269V33.6561Z" fill="#1D1D1B"/>
<path d="M65.4165 19.9033L65.7098 21.8269V33.6561H67.9649L67.741 32.0901V28.515H68.8449C69.6101 28.5226 70.3713 28.4018 71.0968 28.1575C71.7446 27.9418 72.3482 27.6106 72.8788 27.1799C73.3653 26.7913 73.766 26.3054 74.0552 25.7531C74.3326 25.2264 74.4787 24.6403 74.481 24.0447C74.4886 23.409 74.347 22.7804 74.0679 22.2097C73.8103 21.6985 73.4365 21.2552 72.9766 20.9157C72.5066 20.5713 71.9789 20.3141 71.4185 20.1564C70.8309 19.988 70.2224 19.9039 69.6113 19.9065L65.4165 19.9033ZM67.741 26.968V21.4504H69.2044C69.6084 21.4479 70.0108 21.5022 70.3998 21.6117C70.7594 21.7145 71.0979 21.8805 71.3996 22.1021C71.6862 22.3163 71.9203 22.5933 72.084 22.912C72.2569 23.263 72.3445 23.6501 72.3395 24.0415C72.3432 24.4603 72.256 24.8748 72.084 25.2564C71.9237 25.6086 71.6904 25.9224 71.3996 26.177C71.1074 26.4354 70.7678 26.6342 70.3998 26.7623C70.0164 26.9004 69.6118 26.97 69.2044 26.968H67.741Z" fill="#1D1D1B"/>
<path d="M97.3977 15.6509H81.3882L81.7698 18.1566V33.5735H84.7093L84.416 31.5329V17.8307H94.7547V33.5735H97.6911L97.3977 31.5329V15.6509Z" fill="#1D1D1B"/>
<path d="M108.084 19.65C107.341 19.6501 106.603 19.7741 105.901 20.017C105.228 20.255 104.599 20.6012 104.037 21.042C103.477 21.4857 102.99 22.0141 102.592 22.6081C102.178 23.2202 101.858 23.8923 101.646 24.6012C101.427 25.3448 101.318 26.1164 101.321 26.8918C101.319 27.6388 101.412 28.3831 101.599 29.1064C101.774 29.7849 102.047 30.4341 102.41 31.0331C102.763 31.6112 103.211 32.1256 103.734 32.5549C104.271 32.9911 104.879 33.3294 105.532 33.5546C106.26 33.7986 107.023 33.9194 107.79 33.9121C108.536 33.9143 109.277 33.7913 109.982 33.5483C110.657 33.3098 111.289 32.9625 111.853 32.5201C112.419 32.0726 112.912 31.5389 113.313 30.9382C113.726 30.3229 114.045 29.6489 114.259 28.9387C114.484 28.1885 114.597 27.4093 114.596 26.626C114.606 25.6814 114.469 24.741 114.19 23.8388C113.937 23.0248 113.522 22.2712 112.969 21.6241C112.413 20.9858 111.718 20.4845 110.938 20.1593C110.03 19.7935 109.059 19.6128 108.08 19.6278L108.084 19.65ZM103.529 26.7779C103.526 26.0355 103.632 25.2967 103.845 24.5854C104.037 23.9334 104.344 23.3215 104.753 22.7789C105.128 22.2776 105.607 21.8633 106.156 21.564C106.718 21.275 107.34 21.1243 107.972 21.1243C108.603 21.1243 109.225 21.275 109.787 21.564C110.333 21.8644 110.808 22.2786 111.181 22.7789C111.58 23.3201 111.882 23.9272 112.073 24.5727C112.494 26.005 112.494 27.5286 112.073 28.9609C111.882 29.6064 111.58 30.2135 111.181 30.7547C110.808 31.255 110.333 31.6692 109.787 31.9696C109.225 32.2586 108.603 32.4093 107.972 32.4093C107.34 32.4093 106.718 32.2586 106.156 31.9696C105.607 31.6703 105.128 31.256 104.753 30.7547C104.348 30.2155 104.043 29.608 103.851 28.9609C103.637 28.253 103.529 27.5174 103.529 26.7779V26.7779Z" fill="#1D1D1B"/>
<path d="M128.032 22.7254V33.6561H130.284L130.06 32.0901V19.9033H128.098L120.705 29.7679L120.097 30.8341V19.9033H117.775L118.069 21.8269V33.6561H120.027L127.423 23.7916L128.032 22.7254Z" fill="#1D1D1B"/>
<path d="M145.221 21.3648C144.58 20.8126 143.847 20.3788 143.055 20.0835C141.493 19.5314 139.794 19.5059 138.216 20.0107C136.796 20.4753 135.563 21.386 134.7 22.6081C134.255 23.2328 133.912 23.9235 133.681 24.6551C133.437 25.4373 133.315 26.2526 133.318 27.0722C133.311 27.8985 133.439 28.7204 133.697 29.5051C134.148 30.8642 135.05 32.0275 136.251 32.8017C136.831 33.1734 137.463 33.458 138.125 33.6464C138.794 33.834 139.486 33.9287 140.181 33.928C140.759 33.9267 141.335 33.8642 141.9 33.7413C142.394 33.6321 142.877 33.4797 143.345 33.2858C143.725 33.132 144.095 32.9534 144.452 32.7511C144.767 32.5708 144.997 32.4347 145.161 32.2987C145.325 32.1626 145.411 32.112 145.411 32.1089L144.915 30.5618L144.657 30.7453C144.486 30.8623 144.256 31.0079 143.963 31.1787C143.67 31.3496 143.332 31.5267 142.969 31.7039C142.585 31.8775 142.189 32.0224 141.783 32.1373C140.886 32.3978 139.93 32.3757 139.046 32.0741C138.034 31.7419 137.152 31.1002 136.523 30.2391C136.186 29.7783 135.924 29.2668 135.747 28.7237C135.555 28.1224 135.46 27.4946 135.463 26.8634C135.462 26.2879 135.54 25.7151 135.696 25.1613C135.842 24.6173 136.062 24.0965 136.352 23.6142C136.633 23.1428 136.983 22.7163 137.39 22.3487C137.799 21.9906 138.268 21.7079 138.775 21.5135C139.292 21.3052 139.844 21.1978 140.402 21.1971C141.108 21.1922 141.808 21.3322 142.458 21.6084C143.1 21.8899 143.684 22.2866 144.184 22.779L145.221 21.3648Z" fill="#1D1D1B"/>
<path d="M151.126 25.7749V19.903H148.804L149.098 21.8266V33.6558H151.353L151.126 32.0898V27.4486H152.728L156.897 33.6558H159.468L154.507 26.5501L156.67 22.9529C156.858 22.6374 157.077 22.3426 157.326 22.0734C157.5 21.8788 157.706 21.7161 157.935 21.5925C158.108 21.4999 158.301 21.4511 158.496 21.4501C158.638 21.4501 158.771 21.4501 158.903 21.4501C159.017 21.4577 159.13 21.4746 159.241 21.5007L159.039 19.7638C158.917 19.7239 158.791 19.6953 158.664 19.6784C158.489 19.6506 158.313 19.6369 158.137 19.6373C157.771 19.6348 157.409 19.7047 157.071 19.8429C156.655 20.0198 156.277 20.2755 155.957 20.5959C155.524 21.0433 155.154 21.5491 154.86 22.0987L152.744 25.7749H151.126Z" fill="#1D1D1B"/>
<path d="M161.099 33.6557H163.06L164.524 30.0554H170.046L171.466 33.6494H173.926L172.797 31.3494L168.198 19.6309L166.823 19.9029L161.099 33.6557ZM167.116 23.6868L167.388 22.8484L167.612 23.6646L169.482 28.4735H165.133L167.116 23.6868Z" fill="#1D1D1B"/>
</g>
<defs>
<linearGradient id="paint0_linear_2_399" x1="195.054" y1="10.2" x2="178.934" y2="16.3707" gradientUnits="userSpaceOnUse">
<stop stop-color="#445DA7"/>
<stop offset="1" stop-color="#49B1E5"/>
</linearGradient>
<linearGradient id="paint1_linear_2_399" x1="23167.4" y1="58.6244" x2="19267.5" y2="58.6244" gradientUnits="userSpaceOnUse">
<stop stop-color="#445DA7"/>
<stop offset="1" stop-color="#49B1E5"/>
</linearGradient>
<linearGradient id="paint2_linear_2_399" x1="4234.96" y1="3724.5" x2="4234.96" y2="-169.919" gradientUnits="userSpaceOnUse">
<stop stop-color="#445DA7"/>
<stop offset="1" stop-color="#49B1E5"/>
</linearGradient>
<linearGradient id="paint3_linear_2_399" x1="202.122" y1="23.5542" x2="211.063" y2="34.9643" gradientUnits="userSpaceOnUse">
<stop offset="0.01" stop-color="#445DA7"/>
<stop offset="1" stop-color="#49B1E5"/>
</linearGradient>
<linearGradient id="paint4_linear_2_399" x1="10530.1" y1="1428.05" x2="10530.1" y2="730.365" gradientUnits="userSpaceOnUse">
<stop stop-color="#445DA7"/>
<stop offset="1" stop-color="#49B1E5"/>
</linearGradient>
<linearGradient id="paint5_linear_2_399" x1="7268.46" y1="-133.797" x2="7822.49" y2="833.148" gradientUnits="userSpaceOnUse">
<stop stop-color="#445DA7"/>
<stop offset="1" stop-color="#49B1E5"/>
</linearGradient>
<clipPath id="clip0_2_399">
<rect width="215" height="37" fill="white"/>
</clipPath>
</defs>
</svg>
